<svg class="site-logo" width="1200pt" height="1200pt" version="1.1" viewBox="0 0 1200 1200" xmlns="http://www.w3.org/2000/svg">
    <style>
        @media (prefers-color-scheme: dark) {
            .site { fill: #ddd }
        }
   </style>
 <g class="site" fill="#167aac">
  <path d="m597.18 773.63c-87.098 0-157.93-70.871-157.93-157.95 0-87.086 70.836-157.95 157.93-157.95 87.07 0 157.92 70.848 157.92 157.95 0 87.059-70.848 157.95-157.92 157.95zm0-291.6c-73.691 0-133.64 59.965-133.64 133.66s59.953 133.64 133.64 133.64c73.668 0 133.62-59.953 133.62-133.64 0-73.68-59.953-133.66-133.62-133.66z"/>
  <path d="m695.4 630c-7.4531 0-13.5-6.0469-13.5-13.5 0-47.16-38.387-85.535-85.57-85.535-7.4531 0-13.488-6.0469-13.488-13.5s6.0352-13.5 13.488-13.5c62.074 0 112.57 50.484 112.57 112.54 0 7.4531-6.0586 13.5-13.5 13.5z"/>
  <path d="m717.71 1022.1c-21.371 0-38.773-17.41-38.773-38.809 0-21.383 17.398-38.82 38.773-38.82 21.395 0 38.809 17.438 38.809 38.82 0 21.395-17.41 38.809-38.809 38.809zm0-50.652c-6.4922 0-11.773 5.3164-11.773 11.832s5.2812 11.797 11.773 11.797c6.5391 0 11.809-5.2812 11.809-11.797s-5.2695-11.832-11.809-11.832z"/>
  <path d="m476.63 1022.1c-21.395 0-38.797-17.41-38.797-38.809 0-21.383 17.398-38.82 38.797-38.82 21.395 0 38.809 17.438 38.809 38.82 0 21.395-17.414 38.809-38.809 38.809zm0-50.652c-6.5156 0-11.797 5.3164-11.797 11.832s5.2812 11.797 11.797 11.797 11.809-5.2812 11.809-11.797-5.293-11.832-11.809-11.832z"/>
  <path d="m646.71 996.82h-99.047c-7.4531 0-13.5-6.0469-13.5-13.5s6.0469-13.5 13.5-13.5h99.047c7.4531 0 13.5 6.0469 13.5 13.5s-6.0469 13.5-13.5 13.5z"/>
  <path d="m316.86 377.27c0-28.379-23.09-51.469-51.457-51.469-28.379 0-51.469 23.09-51.469 51.469 0 28.379 23.09 51.469 51.469 51.469 28.371-0.003906 51.457-23.09 51.457-51.469zm-51.457 24.465c-13.488 0-24.469-10.98-24.469-24.469s10.98-24.469 24.469-24.469c13.488 0 24.457 10.98 24.457 24.469 0 13.492-10.969 24.469-24.457 24.469z"/>
  <path d="m358.31 306.78c38.832 0 70.453-31.609 70.453-70.453s-31.621-70.453-70.453-70.453c-38.855 0-70.453 31.609-70.453 70.453s31.598 70.453 70.453 70.453zm0-113.91c23.953 0 43.453 19.5 43.453 43.453s-19.5 43.453-43.453 43.453c-23.965 0-43.453-19.5-43.453-43.453s19.488-43.453 43.453-43.453z"/>
  <path d="m902.75 221.06h-236.8c-4.1641 0-40.5-1.1406-40.5-40.5v-111.12c0-7.4531-6.0469-13.5-13.5-13.5-7.4531 0.003906-13.5 6.0625-13.5 13.516v111.12c0 53.387 44.16 67.5 67.5 67.5h236.8c87.047 0 88.523 84.984 88.547 88.559v321.43c0 85.234-57.562 88.477-64.031 88.57h-54.961c19.008-39.742 29.953-84.047 29.953-130.93 0-168.23-136.85-305.07-305.07-305.07-95.543 0-185.62 45.254-243.24 121.44-2.4258-0.46875-4.9219-0.74219-7.4883-0.74219-21.395 0-38.809 17.41-38.809 38.832 0 9.7812 3.7695 18.637 9.7695 25.477-16.547 38.352-25.32 78.637-25.32 120.07 0 72.781 25.703 139.64 68.398 192.14h-68.398v13.5c0 168.24 136.86 305.09 305.1 305.09 168.2 0 305.06-136.89 305.06-305.09l-0.007812-13.516h-68.797c8.7969-10.824 16.969-22.234 24.254-34.199h69.562c0.91016 0 91.031-1.332 91.031-115.59l0.003906-321.43c-0.011719-39.973-24.145-115.56-115.55-115.56zm-305.57 116.55c27.254 0 53.531 4.1172 78.457 11.449-22.105 16.176-49.066 26.027-78.457 26.027-29.23 0-56.027-9.7578-78.035-25.754 25.102-7.4023 51.262-11.723 78.035-11.723zm-250.73 120.7c1.2617 0 2.4375 0.34766 3.5898 0.73047l1.9453 1.0938c1.957 1.1055 3.5156 2.5938 4.5977 4.2969 0.011718 0.011719 0.023437 0.023438 0.035156 0.046875 1.0547 1.6797 1.6094 3.5898 1.6328 5.5664 0 0.035157 0.023438 0.058594 0.023438 0.10938 0 6.5039-5.293 11.809-11.809 11.809-0.91016 0-1.7148-0.32422-2.5664-0.52734-0.88672-0.28906-1.9062-0.70703-3.2656-1.5117l-2.6172-1.5977c-2.0508-2.125-3.3594-4.9922-3.3594-8.1836-0.015625-6.5273 5.2773-11.832 11.793-11.832zm-27.359 157.38c0-21.938 2.8906-43.488 8.0273-64.598 10.727 19.188 17.137 41.09 17.137 64.598 0 23.578-6.457 45.516-17.23 64.754-5.0078-20.809-7.9336-42.445-7.9336-64.754zm278.09 483.72c-148.81 0-270.71-117.49-277.77-264.59h65.879v-0.12109c54.938 53.16 129.59 86.062 211.88 86.062 82.211 0 156.73-32.832 211.57-85.945h66.18c-7.0859 147.1-128.96 264.59-277.75 264.59zm242.96-348.81c-1.3555 1.3789-2.3398 3.0977-3.0234 4.9688-48.289 82.496-137.64 138.2-239.94 138.2-119.88 0-221.99-76.402-260.96-182.95 20.16-26.484 32.316-59.363 32.316-95.137 0-35.699-12.098-68.496-32.16-94.957 1.5-4.0938 2.7617-8.2305 4.4648-12.254 0.66016 0.10937 1.2734 0.011718 1.9336 0.097656 1.2227 0.12109 2.4102 0.37109 3.6836 0.37109 0.44531 0 0.85156-0.12109 1.2969-0.14453 1.5117-0.046875 2.9883-0.22656 4.4648-0.44531 1.1523-0.17969 2.293-0.35938 3.4062-0.63672 1.3203-0.32422 2.6172-0.74219 3.8984-1.2227 1.3789-0.49219 2.7227-1.0664 4.0078-1.7148 0.86328-0.43359 1.7148-0.875 2.5312-1.3789 1.6914-0.99609 3.2773-2.125 4.7773-3.3594 0.42187-0.33594 0.83984-0.66016 1.2461-1.0195 1.7539-1.5469 3.3125-3.2383 4.7539-5.0742 0.19141-0.23828 0.38281-0.44531 0.57422-0.68359 1.4414-1.9453 2.6992-4.0078 3.7578-6.2031 0.14453-0.26562 0.3125-0.52734 0.44531-0.79297 0.96094-2.0898 1.7148-4.2734 2.2812-6.5508 0.12109-0.45703 0.30078-0.86328 0.40625-1.3203 0.53906-2.4492 0.81641-4.9922 0.86328-7.5977 0-0.23828 0.070313-0.44531 0.070313-0.68359 0-2.375-0.26562-4.7148-0.71875-7.0078-0.23828-1.3203-0.64844-2.5664-1.0195-3.8281-0.23828-0.78125-0.43359-1.5586-0.73047-2.3164-1.4023-3.8984-3.4219-7.4648-5.9297-10.68 30.266-39.301 70.297-69 115.13-87.445 27.938 25.117 64.738 40.523 105.18 40.523 40.609 0 77.566-15.527 105.53-40.824 71.941 29.629 128.61 88.656 155.43 161.98-20.184 26.484-32.305 59.363-32.305 95.148 0 35.832 12.18 68.746 32.387 95.242-5.0039 13.777-10.98 27.062-18.035 39.699zm9.9609-134.91c0-23.594 6.3828-45.625 17.23-64.871 4.9922 20.855 7.9453 42.504 7.9453 64.871 0 22.402-2.8086 44.137-7.8594 65.016-10.875-19.297-17.316-41.375-17.316-65.016z"/>
 </g>
</svg>
